<mxfile host="65bd71144e">
    <diagram id="TO62LUzpwMXBoUDi07OC" name="Page-1">
        <mxGraphModel dx="2987" dy="907" grid="1" gridSize="10" guides="1" tooltips="1" connect="1" arrows="1" fold="1" page="1" pageScale="1" pageWidth="850" pageHeight="1100" math="0" shadow="0">
            <root>
                <mxCell id="0"/>
                <mxCell id="1" parent="0"/>
                <mxCell id="76" value="" style="strokeWidth=1;shadow=0;dashed=0;align=center;html=1;shape=mxgraph.mockup.containers.browserWindow;rSize=0;strokeColor=#A8A8A8;strokeColor2=#008cff;strokeColor3=#c4c4c4;mainText=,;recursiveResize=0;fontSize=10;fontColor=#000000;fillColor=#FFFFFF;movable=1;resizable=1;rotatable=1;deletable=1;editable=1;connectable=1;" parent="1" vertex="1">
                    <mxGeometry x="-1690" width="910" height="827" as="geometry"/>
                </mxCell>
                <mxCell id="77" value="Todo list" style="strokeWidth=1;shadow=0;dashed=0;align=center;html=1;shape=mxgraph.mockup.containers.anchor;fontSize=17;fontColor=#666666;align=left;fillColor=#3399FF;" parent="76" vertex="1">
                    <mxGeometry x="60" y="12" width="110" height="26" as="geometry"/>
                </mxCell>
                <mxCell id="78" value="https://localhost:7063" style="strokeWidth=1;shadow=0;dashed=0;align=center;html=1;shape=mxgraph.mockup.containers.anchor;rSize=0;fontSize=17;fontColor=#666666;align=left;fillColor=#3399FF;" parent="76" vertex="1">
                    <mxGeometry x="130" y="60" width="250" height="26" as="geometry"/>
                </mxCell>
                <mxCell id="79" value="E19E2E15-CECE-44CD-B659-2C2EA59C325E" style="childLayout=tableLayout;recursiveResize=0;strokeColor=#98bf21;fillColor=#A7C942;shadow=0;movable=1;resizable=1;rotatable=1;deletable=1;editable=1;connectable=1;" parent="76" vertex="1">
                    <mxGeometry x="60" y="190" width="440" height="212" as="geometry"/>
                </mxCell>
                <mxCell id="80" style="shape=tableRow;horizontal=0;startSize=0;swimlaneHead=0;swimlaneBody=0;top=0;left=0;bottom=0;right=0;dropTarget=0;collapsible=0;recursiveResize=0;expand=0;fontStyle=0;strokeColor=inherit;fillColor=#ffffff;movable=1;resizable=1;rotatable=1;deletable=1;editable=1;connectable=1;" parent="79" vertex="1">
                    <mxGeometry width="440" height="42" as="geometry"/>
                </mxCell>
                <mxCell id="81" value="" style="connectable=1;recursiveResize=0;strokeColor=#001DBC;fillColor=#0050ef;align=center;fontStyle=1;html=1;movable=1;resizable=1;rotatable=1;deletable=1;editable=1;fontColor=#ffffff;" parent="80" vertex="1">
                    <mxGeometry width="153" height="42" as="geometry">
                        <mxRectangle width="153" height="42" as="alternateBounds"/>
                    </mxGeometry>
                </mxCell>
                <mxCell id="82" value="Name" style="connectable=1;recursiveResize=0;strokeColor=#001DBC;fillColor=#0050ef;align=center;fontStyle=1;html=1;movable=1;resizable=1;rotatable=1;deletable=1;editable=1;fontColor=#ffffff;" parent="80" vertex="1">
                    <mxGeometry x="153" width="287" height="42" as="geometry">
                        <mxRectangle width="287" height="42" as="alternateBounds"/>
                    </mxGeometry>
                </mxCell>
                <mxCell id="83" value="" style="shape=tableRow;horizontal=0;startSize=0;swimlaneHead=0;swimlaneBody=0;top=0;left=0;bottom=0;right=0;dropTarget=0;collapsible=0;recursiveResize=0;expand=0;fontStyle=0;strokeColor=inherit;fillColor=#ffffff;movable=1;resizable=1;rotatable=1;deletable=1;editable=1;connectable=1;" parent="79" vertex="1">
                    <mxGeometry y="42" width="440" height="43" as="geometry"/>
                </mxCell>
                <mxCell id="84" value="Value 1" style="connectable=1;recursiveResize=0;strokeColor=inherit;fillColor=inherit;align=center;whiteSpace=wrap;html=1;movable=1;resizable=1;rotatable=1;deletable=1;editable=1;" parent="83" vertex="1">
                    <mxGeometry width="153" height="43" as="geometry">
                        <mxRectangle width="153" height="43" as="alternateBounds"/>
                    </mxGeometry>
                </mxCell>
                <mxCell id="85" value="&lt;font color=&quot;#000000&quot;&gt;Short list&lt;/font&gt;" style="connectable=1;recursiveResize=0;strokeColor=inherit;fillColor=inherit;align=center;whiteSpace=wrap;html=1;movable=1;resizable=1;rotatable=1;deletable=1;editable=1;" parent="83" vertex="1">
                    <mxGeometry x="153" width="287" height="43" as="geometry">
                        <mxRectangle width="287" height="43" as="alternateBounds"/>
                    </mxGeometry>
                </mxCell>
                <mxCell id="87" value="" style="shape=tableRow;horizontal=0;startSize=0;swimlaneHead=0;swimlaneBody=0;top=0;left=0;bottom=0;right=0;dropTarget=0;collapsible=0;recursiveResize=0;expand=0;fontStyle=1;strokeColor=inherit;fillColor=#EAF2D3;movable=1;resizable=1;rotatable=1;deletable=1;editable=1;connectable=1;" parent="79" vertex="1">
                    <mxGeometry y="85" width="440" height="42" as="geometry"/>
                </mxCell>
                <mxCell id="88" value="Value 4" style="connectable=1;recursiveResize=0;strokeColor=inherit;fillColor=inherit;whiteSpace=wrap;html=1;movable=1;resizable=1;rotatable=1;deletable=1;editable=1;" parent="87" vertex="1">
                    <mxGeometry width="153" height="42" as="geometry">
                        <mxRectangle width="153" height="42" as="alternateBounds"/>
                    </mxGeometry>
                </mxCell>
                <mxCell id="89" value="&lt;span style=&quot;color: rgb(0, 0, 0);&quot;&gt;Groceries&amp;nbsp;&lt;/span&gt;" style="connectable=1;recursiveResize=0;strokeColor=inherit;fillColor=inherit;whiteSpace=wrap;html=1;movable=1;resizable=1;rotatable=1;deletable=1;editable=1;" parent="87" vertex="1">
                    <mxGeometry x="153" width="287" height="42" as="geometry">
                        <mxRectangle width="287" height="42" as="alternateBounds"/>
                    </mxGeometry>
                </mxCell>
                <mxCell id="90" value="" style="shape=tableRow;horizontal=0;startSize=0;swimlaneHead=0;swimlaneBody=0;top=0;left=0;bottom=0;right=0;dropTarget=0;collapsible=0;recursiveResize=0;expand=0;fontStyle=0;strokeColor=inherit;fillColor=#ffffff;movable=1;resizable=1;rotatable=1;deletable=1;editable=1;connectable=1;" parent="79" vertex="1">
                    <mxGeometry y="127" width="440" height="43" as="geometry"/>
                </mxCell>
                <mxCell id="91" value="Value 7" style="connectable=1;recursiveResize=0;strokeColor=inherit;fillColor=inherit;fontStyle=0;align=center;whiteSpace=wrap;html=1;movable=1;resizable=1;rotatable=1;deletable=1;editable=1;" parent="90" vertex="1">
                    <mxGeometry width="153" height="43" as="geometry">
                        <mxRectangle width="153" height="43" as="alternateBounds"/>
                    </mxGeometry>
                </mxCell>
                <mxCell id="92" value="&lt;span style=&quot;color: rgb(0, 0, 0);&quot;&gt;Household tasks&lt;/span&gt;" style="connectable=1;recursiveResize=0;strokeColor=inherit;fillColor=inherit;fontStyle=0;align=center;whiteSpace=wrap;html=1;movable=1;resizable=1;rotatable=1;deletable=1;editable=1;" parent="90" vertex="1">
                    <mxGeometry x="153" width="287" height="43" as="geometry">
                        <mxRectangle width="287" height="43" as="alternateBounds"/>
                    </mxGeometry>
                </mxCell>
                <mxCell id="93" value="" style="shape=tableRow;horizontal=0;startSize=0;swimlaneHead=0;swimlaneBody=0;top=0;left=0;bottom=0;right=0;dropTarget=0;collapsible=0;recursiveResize=0;expand=0;fontStyle=1;strokeColor=inherit;fillColor=#EAF2D3;movable=1;resizable=1;rotatable=1;deletable=1;editable=1;connectable=1;" parent="79" vertex="1">
                    <mxGeometry y="170" width="440" height="42" as="geometry"/>
                </mxCell>
                <mxCell id="94" value="Value 10" style="connectable=1;recursiveResize=0;strokeColor=inherit;fillColor=inherit;whiteSpace=wrap;html=1;movable=1;resizable=1;rotatable=1;deletable=1;editable=1;" parent="93" vertex="1">
                    <mxGeometry width="153" height="42" as="geometry">
                        <mxRectangle width="153" height="42" as="alternateBounds"/>
                    </mxGeometry>
                </mxCell>
                <mxCell id="95" value="&lt;span style=&quot;color: rgb(0, 0, 0);&quot;&gt;Shopping list&lt;/span&gt;" style="connectable=1;recursiveResize=0;strokeColor=inherit;fillColor=inherit;whiteSpace=wrap;html=1;movable=1;resizable=1;rotatable=1;deletable=1;editable=1;" parent="93" vertex="1">
                    <mxGeometry x="153" width="287" height="42" as="geometry">
                        <mxRectangle width="287" height="42" as="alternateBounds"/>
                    </mxGeometry>
                </mxCell>
                <mxCell id="96" value="Open" style="html=1;shadow=0;dashed=0;shape=mxgraph.bootstrap.rrect;rSize=5;strokeColor=none;strokeWidth=1;fillColor=#0085FC;fontColor=#FFFFFF;whiteSpace=wrap;align=center;verticalAlign=middle;spacingLeft=0;fontStyle=0;fontSize=16;spacing=5;" parent="76" vertex="1">
                    <mxGeometry x="90" y="286.75" width="80" height="18.5" as="geometry"/>
                </mxCell>
                <mxCell id="98" value="Todo lists" style="text;strokeColor=none;fillColor=none;html=1;fontSize=24;fontStyle=1;verticalAlign=middle;align=center;fontColor=#000000;" parent="76" vertex="1">
                    <mxGeometry x="50" y="120" width="110" height="40" as="geometry"/>
                </mxCell>
                <mxCell id="99" value="Open" style="html=1;shadow=0;dashed=0;shape=mxgraph.bootstrap.rrect;rSize=5;strokeColor=none;strokeWidth=1;fillColor=#0085FC;fontColor=#FFFFFF;whiteSpace=wrap;align=center;verticalAlign=middle;spacingLeft=0;fontStyle=0;fontSize=16;spacing=5;" parent="76" vertex="1">
                    <mxGeometry x="90" y="330" width="80" height="18.5" as="geometry"/>
                </mxCell>
                <mxCell id="100" value="Add" style="html=1;shadow=0;dashed=0;shape=mxgraph.bootstrap.rrect;rSize=5;strokeColor=none;strokeWidth=1;fillColor=#0085FC;fontColor=#FFFFFF;whiteSpace=wrap;align=center;verticalAlign=middle;spacingLeft=0;fontStyle=0;fontSize=16;spacing=5;" parent="76" vertex="1">
                    <mxGeometry x="395" y="435.38" width="105" height="29.25" as="geometry"/>
                </mxCell>
                <mxCell id="101" value="Open" style="html=1;shadow=0;dashed=0;shape=mxgraph.bootstrap.rrect;rSize=5;strokeColor=none;strokeWidth=1;fillColor=#0085FC;fontColor=#FFFFFF;whiteSpace=wrap;align=center;verticalAlign=middle;spacingLeft=0;fontStyle=0;fontSize=16;spacing=5;" parent="76" vertex="1">
                    <mxGeometry x="90" y="240" width="80" height="18.5" as="geometry"/>
                </mxCell>
                <mxCell id="115" value="" style="line;strokeWidth=1;html=1;perimeter=backbonePerimeter;points=[];outlineConnect=0;rounded=1;fontSize=11;fontColor=#000000;fillColor=#FFFFFF;" parent="76" vertex="1">
                    <mxGeometry x="-10" y="160" width="920" height="10" as="geometry"/>
                </mxCell>
                <mxCell id="119" value="&lt;div style=&quot;text-align: justify;&quot;&gt;&lt;font size=&quot;1&quot;&gt;&amp;nbsp; &amp;nbsp; &amp;nbsp; &amp;nbsp; &amp;nbsp; Todo lists are fetched and shown at home route&lt;/font&gt;&lt;/div&gt;&lt;div style=&quot;text-align: justify;&quot;&gt;&lt;font size=&quot;1&quot;&gt;&lt;br&gt;&lt;/font&gt;&lt;/div&gt;&lt;div style=&quot;text-align: justify;&quot;&gt;&lt;font size=&quot;1&quot;&gt;&amp;nbsp; &amp;nbsp; &amp;nbsp; &amp;nbsp; &amp;nbsp; &amp;nbsp; &amp;nbsp; &amp;nbsp; &amp;nbsp; &amp;nbsp; &amp;nbsp;&lt;/font&gt;&lt;/div&gt;" style="strokeWidth=1;shadow=0;dashed=0;align=left;html=1;shape=mxgraph.mockup.text.stickyNote2;fontColor=#666666;mainText=;fontSize=17;whiteSpace=wrap;fillColor=#ffffcc;strokeColor=#F62E00;" parent="76" vertex="1">
                    <mxGeometry x="560" y="166.75" width="290" height="113.25" as="geometry"/>
                </mxCell>
                <mxCell id="120" value="&lt;div style=&quot;text-align: justify;&quot;&gt;&lt;span style=&quot;font-size: x-small; background-color: initial;&quot;&gt;&amp;nbsp; &amp;nbsp; &amp;nbsp; &amp;nbsp; &amp;nbsp;On clicking the particular todo list open button&lt;/span&gt;&lt;/div&gt;&lt;div style=&quot;text-align: justify;&quot;&gt;&lt;span style=&quot;font-size: x-small; background-color: initial;&quot;&gt;&amp;nbsp; &amp;nbsp; &amp;nbsp; &amp;nbsp; &amp;nbsp;the particular todo list's items are revealed in&amp;nbsp;&lt;/span&gt;&lt;/div&gt;&lt;div style=&quot;text-align: justify;&quot;&gt;&lt;span style=&quot;font-size: x-small; background-color: initial;&quot;&gt;&amp;nbsp; &amp;nbsp; &amp;nbsp; &amp;nbsp; &amp;nbsp;different page&lt;/span&gt;&lt;br&gt;&lt;/div&gt;" style="strokeWidth=1;shadow=0;dashed=0;align=left;html=1;shape=mxgraph.mockup.text.stickyNote2;fontColor=#666666;mainText=;fontSize=17;whiteSpace=wrap;fillColor=#ffffcc;strokeColor=#F62E00;" parent="76" vertex="1">
                    <mxGeometry x="570" y="287.63" width="300" height="212.37" as="geometry"/>
                </mxCell>
                <mxCell id="121" value="New list" style="html=1;shadow=0;dashed=0;shape=mxgraph.bootstrap.rrect;rSize=5;fillColor=none;strokeColor=#999999;align=left;spacing=15;fontSize=14;fontColor=#6C767D;" vertex="1" parent="76">
                    <mxGeometry x="59.99526033328084" y="429.9999999999999" width="287.73084988838025" height="40" as="geometry"/>
                </mxCell>
                <mxCell id="122" value="Open" style="html=1;shadow=0;dashed=0;shape=mxgraph.bootstrap.rrect;rSize=5;strokeColor=none;strokeWidth=1;fillColor=#0085FC;fontColor=#FFFFFF;whiteSpace=wrap;align=center;verticalAlign=middle;spacingLeft=0;fontStyle=0;fontSize=16;spacing=5;" vertex="1" parent="76">
                    <mxGeometry x="90" y="370" width="80" height="18.5" as="geometry"/>
                </mxCell>
                <mxCell id="123" value="&lt;div style=&quot;text-align: justify;&quot;&gt;&lt;font size=&quot;1&quot;&gt;&amp;nbsp; &amp;nbsp; &amp;nbsp; &amp;nbsp; &amp;nbsp; Add button persists a new list&amp;nbsp;&lt;/font&gt;&lt;/div&gt;&lt;div style=&quot;text-align: justify;&quot;&gt;&lt;font size=&quot;1&quot;&gt;&amp;nbsp; &amp;nbsp; &amp;nbsp; &amp;nbsp; &amp;nbsp; On successful POST the table is&amp;nbsp;&lt;/font&gt;&lt;span style=&quot;font-size: x-small; background-color: initial;&quot;&gt;automatically refreshed&lt;/span&gt;&lt;/div&gt;&lt;div style=&quot;text-align: justify;&quot;&gt;&lt;span style=&quot;font-size: x-small;&quot;&gt;&amp;nbsp; &amp;nbsp; &amp;nbsp; &amp;nbsp; &amp;nbsp; Adding a new list without a name is not allowed&lt;/span&gt;&lt;font size=&quot;1&quot;&gt;&lt;br&gt;&lt;/font&gt;&lt;/div&gt;" style="strokeWidth=1;shadow=0;dashed=0;align=left;html=1;shape=mxgraph.mockup.text.stickyNote2;fontColor=#666666;mainText=;fontSize=17;whiteSpace=wrap;fillColor=#ffffcc;strokeColor=#F62E00;" vertex="1" parent="76">
                    <mxGeometry x="470" y="520" width="420" height="113.25" as="geometry"/>
                </mxCell>
            </root>
        </mxGraphModel>
    </diagram>
</mxfile>